<svg width="412" height="383" viewBox="0 0 412 383" fill="none" xmlns="http://www.w3.org/2000/svg">
<path opacity="0.42" d="M93.4054 374.139H318.364C368.534 339.458 401.365 282.583 401.365 218.078C401.365 112.65 313.971 12.0779 206 12.0779C98.0294 12.0779 10.6355 112.65 10.6355 218.078C10.4043 282.583 43.2348 339.458 93.4054 374.139Z" fill="url(#paint0_linear)"/>
<path opacity="0.43" d="M206 382.693C319.771 382.693 412 379.07 412 374.601C412 370.132 319.771 366.509 206 366.509C92.2294 366.509 0 370.132 0 374.601C0 379.07 92.2294 382.693 206 382.693Z" fill="#CEE5ED"/>
<path d="M138.72 277.034H129.241V366.74H138.72V277.034Z" fill="#AAC6CE"/>
<path d="M138.72 277.034H129.241V289.519H138.72V277.034Z" fill="#85B0BA"/>
<path d="M174.788 366.509H96.1794C93.1738 366.509 90.8618 369.052 90.8618 371.827V374.601H180.336V371.827C180.105 369.052 177.793 366.509 174.788 366.509Z" fill="#AAC6CE"/>
<path d="M111.901 277.034H176.638C153.055 268.48 162.072 188.715 166.465 158.428C167.389 152.417 162.534 146.868 156.523 146.868H113.288C104.503 146.868 96.8733 153.342 95.7173 162.127C92.018 189.64 86.0069 246.747 97.7981 268.942C100.573 273.797 105.89 277.034 111.901 277.034Z" fill="#AAC6CE"/>
<path d="M85.7206 98.8315C110.269 93.3453 125.722 68.9974 120.236 44.4489C114.749 19.9004 90.4017 4.44745 65.8532 9.93369C41.3048 15.4199 25.8518 39.7678 31.338 64.3163C36.8242 88.8647 61.1722 104.318 85.7206 98.8315Z" fill="#3E8CCC"/>
<path d="M75.8343 91.6109C96.3921 91.6109 113.058 74.9455 113.058 54.3876C113.058 33.8297 96.3921 17.1642 75.8343 17.1642C55.2764 17.1642 38.6108 33.8297 38.6108 54.3876C38.6108 74.9455 55.2764 91.6109 75.8343 91.6109Z" fill="#CEE5ED"/>
<path d="M65.1988 67.1036C64.5052 67.1036 64.0427 66.8725 63.5803 66.4101C62.6555 65.4853 62.6555 64.098 63.5803 63.1732L73.2908 53.4628V28.0307C73.2908 26.6435 74.2156 25.7187 75.6028 25.7187C76.99 25.7187 77.9148 26.6435 77.9148 28.0307V54.3876C77.9148 55.0812 77.6836 55.5436 77.2212 56.006L66.8172 66.4101C66.586 66.8725 65.8924 67.1036 65.1988 67.1036Z" fill="#3E8CCC"/>
<path d="M80.6894 53.694C80.6894 50.6884 78.3774 48.3763 75.3718 48.3763C72.3662 48.3763 70.0542 50.6884 70.0542 53.694C70.0542 56.6996 72.3662 59.0116 75.3718 59.0116C78.3774 59.0116 80.6894 56.6996 80.6894 53.694Z" fill="#1E394C"/>
<path d="M335.01 96.9285H257.326C253.396 96.9285 250.159 100.165 250.159 104.096V139.007C250.159 142.937 253.396 146.174 257.326 146.174H262.644V154.729C262.644 155.885 264.031 156.578 264.956 155.654L275.36 146.174H334.779C338.709 146.174 341.946 142.937 341.946 139.007V104.096C342.177 99.9341 338.94 96.9285 335.01 96.9285Z" fill="#62BDF4"/>
<path d="M277.21 125.366C278.998 125.366 280.447 123.917 280.447 122.129C280.447 120.342 278.998 118.893 277.21 118.893C275.422 118.893 273.973 120.342 273.973 122.129C273.973 123.917 275.422 125.366 277.21 125.366Z" fill="#34648C"/>
<path d="M296.862 125.366C298.65 125.366 300.099 123.917 300.099 122.129C300.099 120.342 298.65 118.893 296.862 118.893C295.074 118.893 293.625 120.342 293.625 122.129C293.625 123.917 295.074 125.366 296.862 125.366Z" fill="#34648C"/>
<path d="M315.127 125.366C316.914 125.366 318.363 123.917 318.363 122.129C318.363 120.342 316.914 118.893 315.127 118.893C313.339 118.893 311.89 120.342 311.89 122.129C311.89 123.917 313.339 125.366 315.127 125.366Z" fill="#34648C"/>
<path d="M80.6889 190.796C80.6889 182.242 74.6777 173.687 67.2793 173.687C59.8808 173.687 53.8696 182.242 53.8696 190.796C53.8696 199.351 59.8808 206.287 67.2793 206.287C74.6777 206.287 80.6889 199.351 80.6889 190.796Z" fill="#3E8CCC"/>
<path opacity="0.25" d="M67.2795 173.687C66.1235 173.687 64.9675 173.918 63.8115 174.381C69.5915 176.462 73.7531 183.629 73.7531 190.796C73.7531 197.963 69.5915 203.975 63.8115 205.824C64.9675 206.055 66.1235 206.287 67.2795 206.287C74.678 206.287 80.6892 199.351 80.6892 190.796C80.6892 182.242 74.678 173.687 67.2795 173.687Z" fill="#34648C"/>
<path d="M51.7887 200.969L54.1007 222.933C54.3319 225.707 56.6438 227.788 59.4183 227.788H73.2903C76.0647 227.788 78.3767 225.707 78.6079 222.933L80.9199 200.969C81.1511 199.813 80.2264 198.657 78.8392 198.657H53.1758C52.4822 198.657 51.5575 199.813 51.7887 200.969Z" fill="#CEE5ED"/>
<path d="M53.8699 201.894H79.5332C80.2268 201.894 80.9203 202.356 81.3827 203.05L81.614 200.969C81.8452 199.813 80.9204 198.657 79.5332 198.657H53.8699C52.7139 198.657 51.7891 199.813 51.7891 200.969L52.0202 203.05C52.2514 202.587 52.9451 201.894 53.8699 201.894Z" fill="#AAC6CE"/>
<path d="M79.3018 198.657H70.516C71.672 198.657 72.5969 199.813 72.5969 200.969L70.2849 222.933C70.0537 225.707 67.7417 227.788 64.9673 227.788H73.7529C76.5273 227.788 78.8393 225.707 79.0705 222.933L81.3825 200.969C81.3825 199.813 80.4578 198.657 79.3018 198.657Z" fill="#AAC6CE"/>
<path d="M191.203 353.331L190.278 359.573L195.133 365.815L207.387 359.804L208.774 354.024L193.515 351.712L191.203 353.331Z" fill="#F2BF75"/>
<path d="M201.145 373.676L202.301 372.058C202.532 371.826 202.994 371.826 203.226 372.058L204.382 373.445C204.844 374.138 205.538 374.37 206.462 374.37L234.9 373.907C235.363 373.445 235.594 372.289 234.9 371.827C230.739 367.665 208.312 360.266 207.156 359.804C206 359.11 199.295 364.428 190.047 359.573C190.047 359.573 188.66 366.74 188.429 371.364C188.429 373.214 189.816 374.832 191.666 374.832L198.833 374.601C199.989 374.601 200.682 374.37 201.145 373.676Z" fill="#1E394C"/>
<path d="M139.183 246.284C139.183 246.284 127.392 259.232 148.894 273.566C164.153 283.508 175.944 280.502 185.423 286.513C187.735 287.901 189.354 289.981 189.585 292.756L190.047 353.793L191.203 354.255C196.983 357.03 203.688 357.261 209.468 354.487L218.023 284.895C218.254 280.04 215.711 276.109 212.705 272.179C196.29 251.14 166.927 243.972 159.529 242.816C150.05 241.198 139.183 246.284 139.183 246.284Z" fill="#1E394C"/>
<path d="M144.27 353.331L143.345 359.573L147.969 365.815L160.454 360.035L161.841 354.255L146.582 351.712L144.27 353.331Z" fill="#F2BF75"/>
<path d="M153.981 373.907L155.368 372.289C155.599 372.058 156.061 372.058 156.293 372.289L157.449 373.907C157.911 374.601 158.604 374.832 159.529 374.832H187.967C188.429 374.37 188.661 373.445 187.967 372.751C183.805 368.59 161.61 360.96 160.454 360.267C159.298 359.573 152.362 364.89 143.345 359.804C143.345 359.804 141.727 366.971 141.496 371.595C141.496 373.445 142.883 375.063 144.732 375.063H151.9C152.593 374.832 153.518 374.37 153.981 373.907Z" fill="#1E394C"/>
<path d="M103.347 234.956C103.347 234.956 89.0125 250.908 109.821 268.942C124.386 281.658 137.334 276.109 146.35 283.97C148.431 285.82 150.05 288.132 149.818 291.137L143.345 353.099L143.807 353.33C149.587 357.03 156.754 357.492 162.766 354.718L178.95 289.288C179.875 284.201 177.794 279.577 175.251 275.185C160.916 250.677 138.49 236.112 130.86 233.8C120.918 230.563 103.347 234.956 103.347 234.956Z" fill="#1E394C"/>
<path d="M182.187 284.664C181.031 284.201 179.875 283.739 178.95 283.508C178.257 280.502 176.869 277.728 175.251 275.185C168.084 263.162 159.067 253.452 150.744 246.285C155.83 245.36 158.604 244.204 159.992 242.817C162.766 243.279 168.546 244.666 175.482 246.978C182.418 258.769 182.418 277.959 182.187 284.664Z" fill="#0F2A3F"/>
<path d="M141.726 150.567C141.726 150.567 121.149 147.793 112.595 163.977C104.04 179.93 91.3245 243.048 102.422 244.897C107.277 245.822 120.687 249.059 135.253 247.903C155.367 246.516 159.76 244.666 161.147 240.736L173.863 182.011C174.094 173.919 170.626 166.289 164.153 161.203C153.98 153.573 141.726 150.567 141.726 150.567Z" fill="#CEE5ED"/>
<path d="M173.863 176.924C173.863 176.924 174.095 212.298 185.192 214.379C196.29 216.46 225.884 215.766 225.884 215.766V227.095H162.535L173.863 176.924Z" fill="#AAC6CE"/>
<path d="M158.604 160.971L161.147 148.487L144.963 136.233L141.958 151.03C141.727 150.798 146.813 173.225 158.604 160.971Z" fill="#EA9249"/>
<path d="M179.181 124.673C179.181 124.673 170.626 128.834 158.373 121.205C158.373 121.205 155.598 126.291 147.275 130.915C147.275 130.915 142.882 123.748 140.57 129.066C139.877 130.684 139.414 132.302 139.414 133.458C131.553 123.286 137.102 110.107 144.501 102.94C151.437 96.235 166.233 98.7782 175.713 102.709C185.654 106.639 187.504 99.703 187.504 99.703C199.526 117.506 179.181 124.673 179.181 124.673Z" fill="#1E394C"/>
<path d="M147.044 130.915C147.044 130.915 142.651 123.748 140.339 129.066C137.334 135.77 140.802 139.701 144.732 139.701C144.732 139.701 147.969 156.81 163.691 155.654C179.412 154.498 181.724 129.066 179.181 124.441C179.181 124.441 170.626 128.603 158.373 120.973C158.373 121.205 155.367 126.291 147.044 130.915Z" fill="#F2BF75"/>
<path d="M283.684 171.144H218.023C214.786 171.144 212.012 173.456 211.318 176.693L202.533 219.696H282.297L290.389 179.467C291.314 175.075 288.077 171.144 283.684 171.144Z" fill="#CEE5ED"/>
<path d="M281.834 219.465H173.17C171.32 219.465 169.933 220.852 169.933 222.702V223.858C169.933 225.708 171.32 227.095 173.17 227.095H281.834C283.684 227.095 285.071 225.708 285.071 223.858V222.702C285.071 220.852 283.684 219.465 281.834 219.465Z" fill="#80A9B2"/>
<path d="M281.834 219.465H201.607C203.457 219.465 204.844 220.852 204.844 222.702V223.858C204.844 225.708 203.457 227.095 201.607 227.095H281.834C283.684 227.095 285.071 225.708 285.071 223.858V222.702C285.071 220.852 283.684 219.465 281.834 219.465Z" fill="#AAC6CE"/>
<path d="M176.638 217.153C163.922 215.766 127.854 212.067 121.843 211.373C113.982 210.68 130.86 179.236 132.71 168.601C134.559 157.966 126.467 157.503 126.467 157.503C121.843 157.041 116.757 157.503 112.595 163.977C103.809 177.155 94.099 215.997 99.1854 225.708C99.879 226.864 101.035 227.557 102.191 227.557H176.638V217.153Z" fill="#CEE5ED"/>
<path d="M176.638 217.153C176.638 217.153 130.398 213.916 120.456 212.529C112.827 211.604 128.779 179.467 130.629 168.601C132.479 157.734 124.155 158.428 124.155 158.428C122.075 158.197 119.069 158.428 116.988 159.122C119.994 157.041 123.231 157.041 126.467 157.272C126.467 157.272 134.56 157.734 132.71 168.37C130.86 179.005 116.295 209.755 121.15 210.911C127.392 212.529 163.922 215.766 176.638 217.153Z" fill="#AAC6CE"/>
<path d="M176.638 227.557H193.978C195.365 227.557 196.059 226.17 195.365 225.014C193.747 222.471 191.203 219.003 189.354 218.54C188.198 218.078 179.874 218.54 176.869 218.772V227.557H176.638Z" fill="#F2BF75"/>
<path opacity="0.67" d="M179.181 124.673C179.181 124.673 177.794 125.366 175.25 125.598C175.019 126.754 174.557 129.066 174.557 131.146C174.325 134.152 175.713 143.631 174.788 143.631C173.863 143.631 172.013 143.631 172.013 143.631C172.013 143.631 170.626 157.272 156.985 154.96C156.754 154.96 156.754 154.96 156.523 154.96C158.604 155.654 160.916 156.116 163.69 155.885C179.643 154.729 181.724 129.297 179.181 124.673Z" fill="#EA9249"/>
<path d="M377.089 321.887C377.089 321.887 398.822 311.252 392.811 294.837C387.031 278.653 383.332 277.959 394.429 268.711C405.758 259.463 421.942 236.574 401.365 234.724C380.788 233.106 381.713 260.388 364.604 264.087C347.495 268.017 338.248 339.921 377.089 321.887Z" fill="#5097D0"/>
<path opacity="0.25" d="M359.98 323.505C364.142 325.355 369.69 325.355 377.089 321.887C377.089 321.887 398.822 311.252 392.811 294.837C387.031 278.652 383.331 277.959 394.429 268.711C405.758 259.463 421.942 236.574 401.365 234.724C399.284 234.493 397.435 234.724 395.816 234.956C401.596 237.268 407.376 242.123 399.978 250.908C387.493 265.705 381.019 270.792 382.406 280.502C383.794 289.981 383.1 311.021 359.98 323.505Z" fill="#34648C"/>
<path d="M340.328 321.425C340.328 321.425 321.37 320.731 322.294 307.09C323.219 293.449 323.913 292.756 311.89 288.594C290.851 280.964 307.497 240.273 324.606 265.936C336.629 283.739 341.715 279.577 349.576 280.964C357.437 282.352 374.314 327.436 340.328 321.425Z" fill="#5097D0"/>
<path opacity="0.29" d="M349.576 280.964C341.715 279.577 336.629 283.508 324.606 265.936C315.59 252.527 306.804 257.382 303.336 265.936C308.422 264.318 316.052 263.393 316.977 271.716C318.133 282.352 343.334 299.923 342.871 321.887C343.103 321.887 343.565 321.887 343.796 321.887C347.495 312.177 352.351 299.692 356.281 289.056C354.2 284.664 351.657 281.196 349.576 280.964Z" fill="#34648C"/>
<path d="M344.721 320.963C344.721 320.963 321.138 297.843 329.23 293.912C337.322 289.982 353.044 302.698 344.258 289.057C335.473 275.185 325.069 253.914 337.322 257.151C349.576 260.388 350.501 264.318 348.882 248.134C347.033 227.326 358.593 216.691 369.459 223.396C380.326 230.101 360.211 275.879 367.61 271.023C375.239 266.168 381.482 262.006 382.869 268.018C384.487 274.029 361.367 297.38 369.922 293.45C380.557 288.595 382.175 297.38 378.707 302.698C375.239 308.015 361.367 340.615 344.721 320.963Z" fill="#5097D0"/>
<path opacity="0.48" d="M378.707 302.697C382.175 297.148 380.557 288.363 369.921 293.449C361.367 297.38 384.487 274.028 382.869 268.017C381.25 262.006 375.008 266.168 367.609 271.023C359.98 275.878 380.325 230.1 369.459 223.395C364.373 220.159 359.286 220.852 355.356 224.551C360.905 225.939 365.529 230.563 362.292 242.816C355.587 268.711 351.657 290.444 363.679 284.201C375.008 278.19 350.5 305.703 350.038 325.817C364.373 333.678 375.701 307.552 378.707 302.697Z" fill="#1E394C"/>
<path d="M328.306 323.505L332.93 364.89C333.392 369.977 337.785 373.907 343.103 373.907H369.459C374.777 373.907 378.939 369.977 379.632 364.89L384.256 323.505C384.487 321.193 382.638 319.344 380.557 319.344H332.236C329.693 319.344 328.074 321.425 328.306 323.505Z" fill="#CEE5ED"/>
<path d="M380.326 319.344H363.68C365.992 319.344 367.61 321.425 367.379 323.505L362.755 364.89C362.293 369.977 357.9 373.907 352.582 373.907H369.229C374.546 373.907 378.708 369.977 379.401 364.89L384.025 323.505C384.488 321.425 382.638 319.344 380.326 319.344Z" fill="#AAC6CE"/>
<path d="M328.999 227.326H45.5461C42.3093 227.326 39.7661 229.869 39.7661 233.106V234.956C39.7661 238.192 42.3093 240.736 45.5461 240.736H328.999C332.235 240.736 334.779 238.192 334.779 234.956V233.106C334.779 230.1 332.235 227.326 328.999 227.326Z" fill="#3E8CCC"/>
<path d="M328.999 227.326H45.5461C42.3093 227.326 39.7661 229.869 39.7661 233.106V234.956C39.7661 235.649 39.9974 236.112 39.9974 236.805C40.691 234.493 43.0029 232.875 45.5461 232.875H328.999C331.542 232.875 333.622 234.493 334.547 236.805C334.778 236.343 334.779 235.649 334.779 234.956V233.106C334.779 230.1 332.235 227.326 328.999 227.326Z" fill="#2173AA"/>
<path d="M135.252 374.37H125.773L59.8804 240.967H69.3596L135.252 374.37Z" fill="#34648C"/>
<path d="M30.9805 374.37H40.4596L106.352 240.967H96.8727L30.9805 374.37Z" fill="#34648C"/>
<path d="M339.171 374.37H329.692L263.8 240.967H273.279L339.171 374.37Z" fill="#34648C"/>
<path d="M234.899 374.37H244.379L310.271 240.967H300.792L234.899 374.37Z" fill="#34648C"/>
<path d="M71.9028 246.284L69.3596 240.967H59.8804L62.4235 246.284H71.9028Z" fill="#1A3651"/>
<path d="M103.578 246.284L106.352 240.967H96.8731L94.0986 246.284H103.578Z" fill="#1A3651"/>
<path d="M275.822 246.284L273.279 240.967H263.8L266.343 246.284H275.822Z" fill="#1A3651"/>
<path d="M307.728 246.284L310.271 240.967H300.792L298.249 246.284H307.728Z" fill="#1A3651"/>
<defs>
<linearGradient id="paint0_linear" x1="205.923" y1="346.317" x2="205.923" y2="-55.9728" gradientUnits="userSpaceOnUse">
<stop stop-color="white"/>
<stop offset="0.1258" stop-color="#F8FCFE"/>
<stop offset="0.3051" stop-color="#E6F3FC"/>
<stop offset="0.5164" stop-color="#C7E5F9"/>
<stop offset="0.7522" stop-color="#9CD1F5"/>
<stop offset="1" stop-color="#67B8EF"/>
</linearGradient>
</defs>
</svg>
